<svg width="73" height="72" viewBox="0 0 73 72" fill="none" xmlns="http://www.w3.org/2000/svg">
<path d="M64.23 58.979C58.7548 65.4686 51.1385 69.8371 42.7248 71.3139C34.3112 72.7907 25.6408 71.2809 18.2433 67.051C10.8458 62.821 5.19642 56.1425 2.29189 48.1938C-0.612637 40.2452 -0.585715 31.537 2.36791 23.6055C5.32153 15.6741 11.0121 9.02905 18.4356 4.8427C25.8592 0.656343 34.5387 -0.802327 42.9431 0.724017C51.3474 2.25036 58.9366 6.66364 64.3716 13.1853C69.8067 19.7069 72.7384 27.9179 72.6497 36.3696L69.124 36.3337C69.2041 28.7038 66.5575 21.2913 61.6509 15.4038C56.7444 9.51631 49.8932 5.53217 42.3061 4.15425C34.719 2.77633 26.8834 4.09316 20.1817 7.87243C13.48 11.6517 8.34285 17.6506 5.67644 24.8108C3.01002 31.9709 2.98572 39.8324 5.60781 47.0081C8.2299 54.1839 13.3299 60.2129 20.0081 64.0316C26.6863 67.8502 34.5136 69.2132 42.1091 67.88C49.7046 66.5467 56.5802 62.603 61.5231 56.7445L64.23 58.979Z" fill="black"/>
<line x1="21.6665" y1="43.0058" x2="36.3863" y2="26.1832" stroke="black" stroke-width="5"/>
<line x1="33.3158" y1="25.0316" x2="42.7786" y2="33.9686" stroke="black" stroke-width="5"/>
<line x1="55.5311" y1="22.0003" x2="33.9771" y2="46.1829" stroke="black" stroke-width="5"/>
<line x1="54.2462" y1="19.6709" x2="68.966" y2="34.9164" stroke="black" stroke-width="5"/>
</svg>
